<?xml version="1.0" encoding="UTF-8"?>
<svg id="Capa_1" xmlns="http://www.w3.org/2000/svg" width="36.12cm" height="36.12cm" version="1.1" viewBox="0 0 1024 1024">
  <!-- Generator: Adobe Illustrator 29.8.2, SVG Export Plug-In . SVG Version: 2.1.1 Build 3)  -->
  <defs>
    <style>
      .st0 {
        fill: #951b35;
      }
    </style>
  </defs>
  <path class="st0" d="M971.12,0l-.02,509.73c-18.97,258.74-231.39,432.04-460.05,514.27-226.05-84.38-436.53-252.56-458.14-509.77l-.02-514.23h918.23ZM914.85,54.01H110.27l-3.49,7.76c5.54,141.06-7.02,287.25.14,427.7,11.33,222.4,167.46,369.38,359.26,455.45,9.25,4.15,38.84,18.55,46.75,18.2,9.54-.43,61.93-25.69,74.14-31.7,178.86-88.01,319.26-232.66,330.01-441.94,1.22-23.85-2.21-46.9-2.33-69.64-.66-121.93.72-243.92.11-365.83Z"/>
  <g>
    <path class="st0" d="M705.48,596.56v211.81h-137.68v-99.29c0-2.62-4.47-19.59-5.85-23.28-15.28-40.88-75.4-46.31-97.92-9-3.81,6.31-10.08,22.92-10.08,29.63v101.93h-137.68v-211.81h389.2Z"/>
    <path class="st0" d="M366.45,307.97h288.72v222.4h-288.72v-222.4ZM541.32,480.06v-96.64c0-11.54-21.41-25.54-32.87-25.01s-28.03,14.22-28.03,25.01v96.64h60.9Z"/>
    <polygon class="st0" points="377.17 119.98 377.17 186.18 480.43 186.18 480.43 119.98 541.32 119.98 541.32 186.18 644.58 186.6 644.58 119.98 700.18 119.98 700.18 241.78 322.89 241.78 318.92 237.8 318.92 119.98 377.17 119.98"/>
    <path class="st0" d="M679,578.03h-336.25c2.01-6.36,9.98-16.67,14.53-21.22,3.19-3.19,5.61-7.23,10.69-7.85l286.05-.22c9.12,1.12,21.92,19.91,24.99,29.29Z"/>
    <path class="st0" d="M342.75,260.31h332.28c1.08,0-12.17,27.88-23.67,29.29l-283.41-.21c-7.91-1.56-19.63-21.94-25.2-29.08Z"/>
  </g>
  <g>
    <path class="st0" d="M318.92,474.7v88.75h-57.69v-41.6c0-1.1-1.87-8.21-2.45-9.75-6.4-17.13-31.59-19.41-41.03-3.77-1.6,2.64-4.22,9.6-4.22,12.42v42.71h-57.69v-88.75h163.07Z"/>
    <path class="st0" d="M176.87,353.78h120.97v93.18h-120.97v-93.18ZM250.14,425.89v-40.49c0-4.84-8.97-10.7-13.77-10.48s-11.74,5.96-11.74,10.48v40.49h25.51Z"/>
    <polygon class="st0" points="181.36 275.02 181.36 302.75 224.63 302.75 224.63 275.02 250.14 275.02 250.14 302.75 293.41 302.93 293.41 275.02 316.7 275.02 316.7 326.05 158.62 326.05 156.96 324.38 156.96 275.02 181.36 275.02"/>
    <path class="st0" d="M307.83,466.93h-140.89c.84-2.66,4.18-6.98,6.09-8.89,1.34-1.34,2.35-3.03,4.48-3.29l119.85-.09c3.82.47,9.18,8.34,10.47,12.27Z"/>
    <path class="st0" d="M166.94,333.81h139.22c.45,0-5.1,11.68-9.92,12.27l-118.75-.09c-3.31-.65-8.23-9.19-10.56-12.18Z"/>
  </g>
  <g>
    <path class="st0" d="M863.25,474.7v88.75h-57.69v-41.6c0-1.1-1.87-8.21-2.45-9.75-6.4-17.13-31.59-19.41-41.03-3.77-1.6,2.64-4.22,9.6-4.22,12.42v42.71h-57.69v-88.75h163.07Z"/>
    <path class="st0" d="M721.21,353.78h120.97v93.18h-120.97v-93.18ZM794.47,425.89v-40.49c0-4.84-8.97-10.7-13.77-10.48s-11.74,5.96-11.74,10.48v40.49h25.51Z"/>
    <polygon class="st0" points="725.7 275.02 725.7 302.75 768.96 302.75 768.96 275.02 794.47 275.02 794.47 302.75 837.74 302.93 837.74 275.02 861.04 275.02 861.04 326.05 702.95 326.05 701.29 324.38 701.29 275.02 725.7 275.02"/>
    <path class="st0" d="M852.16,466.93h-140.89c.84-2.66,4.18-6.98,6.09-8.89,1.34-1.34,2.35-3.03,4.48-3.29l119.85-.09c3.82.47,9.18,8.34,10.47,12.27Z"/>
    <path class="st0" d="M711.27,333.81h139.22c.45,0-5.1,11.68-9.92,12.27l-118.75-.09c-3.31-.65-8.23-9.19-10.56-12.18Z"/>
  </g>
  <metadata>
    <sfw xmlns="http://ns.adobe.com/SaveForWeb/1.0/">
      <slices/>
      <sliceSourceBounds x="-153.12" y="-116" width="918.23" height="1024" bottomLeftOrigin="true"/>
    </sfw>
  </metadata>
</svg>